# xmcd
#
# Track frame offsets:
#	150
#	19505
#	37915
#	48745
#	66030
#	82632
#	90810
#	95437
#	108470
#	121515
#	139445
#	146652
#	157580
#	177920
#	191955
#	206280
#
# Disc length: 2937 seconds
#
# Revision: 2
# Processed by: cddbd v1.5.2PL0 Copyright (c) Steve Scherf et al.
# Submitted via: EasyCDDAExtractor 16.0.6.1
#
DISCID=c20b7710
DTITLE=Howard Keel - C-018 With Love
DYEAR=1990
DGENRE=Easy Listening
TTITLE0=I'veNeverBeenToMe(Miller,Hirsch;1990,HowardKeel,Gillespie,IL)
TTITLE1=BornAgain(Fitzgerald;1990,HowardKeel,Gillespie,IL)
TTITLE2=SoftlyAsILeaveYou(Harris,DeVita;1990,HowardKeel,Gillespie,IL)
TTITLE3=SoInLove(ColePorter,Peru,IN;1990,HowardKeel,Gillespie,IL)
TTITLE4=SendInTheClowns(StephenSondheim;1990,HowardKeel,Gillespie,IL)
TTITLE5=Yesterday,WhenIWasYoung(CharlesAznvour,France;1990,HowardKeel,Gillespi
TTITLE5=e,IL)
TTITLE6=WhatFiftySaid(1990,HowardKeel,Gillespie,IL)
TTITLE7=ThisIsAllIAsk(1990,HowardKeel,Gillespie,IL)
TTITLE8=If(DavidGates;1990,HowardKeel,Gillespie,IL)
TTITLE9=YouWereAlwaysOnMyMind(Thompson,James;1990,HowardKeel,Gillespie,IL)
TTITLE10=Yesterday(JohnLennon&PaulMcCartney,England;1990,HowardKeel,Gillespie,
TTITLE10=IL)
TTITLE11=Something(GeorgeHarrison,England;1990,HowardKeel,Gillespie,IL)
TTITLE12=MacArthurPark(Webb;1990,HowardKeel,Gillespie,IL)
TTITLE13=LoveStory(Lai,Signum;1990,HowardKeel,Gillespie,IL)
TTITLE14=IWon'tSendRoses(Herman;1990,HowardKeel,Gillespie,IL)
TTITLE15=YouNeededMe(Goodrum;1990,HowardKeel,Gillespie,IL)
EXTD=LaserLight Digital 15 105 no date give. guessed about 1990\nmore info\nMi
EXTD=llenniumMusicProjectFormat, syntax as follows:\nTitle{Subtitle}[info](Lyr
EXTD=icist;Composer;Date,Artist,Location)[info]\ncorrections to: windking3@yah
EXTD=oo.com
EXTT0=
EXTT1=
EXTT2=
EXTT3=
EXTT4=
EXTT5=
EXTT6=
EXTT7=
EXTT8=
EXTT9=
EXTT10=
EXTT11=
EXTT12=
EXTT13=
EXTT14=
EXTT15=
PLAYORDER=
